<?xml version="1.0" encoding="utf-8"?>
<!-- Generator: Adobe Illustrator 18.0.0, SVG Export Plug-In . SVG Version: 6.00 Build 0)  -->
<!DOCTYPE svg PUBLIC "-//W3C//DTD SVG 1.1//EN" "http://www.w3.org/Graphics/SVG/1.1/DTD/svg11.dtd">
<svg version="1.1"
	 id="svg3513" inkscape:export-filename="E:\Bilder\icons&amp;logos\weather\plain_weather\dark\png\01.png" inkscape:export-xdpi="90" inkscape:export-ydpi="90" xmlns:dc="http://purl.org/dc/elements/1.1/" xmlns:cc="http://creativecommons.org/ns#" xmlns:sodipodi="http://sodipodi.sourceforge.net/DTD/sodipodi-0.dtd" xmlns:svg="http://www.w3.org/2000/svg" xmlns:inkscape="http://www.inkscape.org/namespaces/inkscape" xmlns:rdf="http://www.w3.org/1999/02/22-rdf-syntax-ns#" inkscape:version="0.48.1 " sodipodi:docname="01.svg"
	 xmlns="http://www.w3.org/2000/svg" xmlns:xlink="http://www.w3.org/1999/xlink" x="0px" y="0px" viewBox="0 0 400 400"
	 enable-background="new 0 0 400 400" xml:space="preserve">
<defs>
	
	<inkscape:path-effect  effect="spiro" id="path-effect7110" is_visible="true"></inkscape:path-effect>
	<inkscape:path-effect  effect="spiro" id="path-effect7107" is_visible="true"></inkscape:path-effect>
	<inkscape:path-effect  effect="spiro" id="path-effect7104" is_visible="true"></inkscape:path-effect>
	<inkscape:path-effect  effect="spiro" id="path-effect3481" is_visible="true"></inkscape:path-effect>
	<inkscape:path-effect  effect="spiro" id="path-effect3490" is_visible="true"></inkscape:path-effect>
	<inkscape:path-effect  effect="spiro" id="path-effect3499" is_visible="true"></inkscape:path-effect>
</defs>
<sodipodi:namedview  showgrid="false" borderopacity="1.0" pagecolor="#ffffff" bordercolor="#666666" id="base" inkscape:zoom="1" inkscape:cy="51" inkscape:cx="-189.42857" inkscape:pageopacity="0.0" inkscape:pageshadow="2" inkscape:document-units="px" inkscape:current-layer="layer1" inkscape:window-width="876" inkscape:window-height="611" inkscape:window-x="1810" inkscape:window-y="300" inkscape:window-maximized="0">
	</sodipodi:namedview>
<g id="_x31_5">
	<path fill="#191919" d="M237.7,190.6c5.2,0,9.4,4.2,9.4,9.4v75.4c0,5.2-4.2,9.4-9.4,9.4c-5.2,0-9.4-4.2-9.4-9.4V200
		C228.3,194.8,232.5,190.6,237.7,190.6z M200,209.4c5.2,0,9.4,4.2,9.4,9.4v75.4c0,5.2-4.2,9.4-9.4,9.4c-5.2,0-9.4-4.2-9.4-9.4v-75.4
		C190.6,213.7,194.8,209.4,200,209.4z M162.3,190.6c5.2,0,9.4,4.2,9.4,9.4v75.4c0,5.2-4.2,9.4-9.4,9.4c-5.2,0-9.4-4.2-9.4-9.4V200
		C152.9,194.8,157.1,190.6,162.3,190.6z M266,243.8v-20.6c11.3-6.5,18.9-18.7,18.9-32.6c0-20.8-16.9-37.7-37.7-37.7
		c-7.5,0-14.5,2.3-20.4,6.1c-5.8-25-28.1-43.8-55-43.8c-31.2,0-56.6,25.3-56.6,56.6c0,16.7,7.3,31.7,18.9,42.1V237
		c-22.5-13.1-37.7-37.3-37.7-65.2c0-41.6,33.7-75.4,75.4-75.4c28.3,0,52.9,15.6,65.8,38.7c3.1-0.6,6.3-1,9.6-1
		c31.2,0,56.6,25.3,56.6,56.6C303.7,215.2,287.9,236.1,266,243.8z"/>
</g>
<g id="Layer_1_1_">
</g>
</svg>
