<?xml version="1.0" encoding="UTF-8" standalone="no"?>
<!-- Generator: Adobe Illustrator 18.0.0, SVG Export Plug-In . SVG Version: 6.00 Build 0)  -->

<svg
   xmlns:dc="http://purl.org/dc/elements/1.1/"
   xmlns:cc="http://creativecommons.org/ns#"
   xmlns:rdf="http://www.w3.org/1999/02/22-rdf-syntax-ns#"
   xmlns:svg="http://www.w3.org/2000/svg"
   xmlns="http://www.w3.org/2000/svg"
   xmlns:sodipodi="http://sodipodi.sourceforge.net/DTD/sodipodi-0.dtd"
   xmlns:inkscape="http://www.inkscape.org/namespaces/inkscape"
   version="1.1"
   id="svg3513"
   inkscape:version="0.48.2 r9819"
   sodipodi:docname="9.svg"
   x="0px"
   y="0px"
   viewBox="0 0 400 400"
   enable-background="new 0 0 400 400"
   xml:space="preserve"
   width="100%"
   height="100%"><metadata
   id="metadata3184"><rdf:RDF><cc:Work
       rdf:about=""><dc:format>image/svg+xml</dc:format><dc:type
         rdf:resource="http://purl.org/dc/dcmitype/StillImage" /><dc:title></dc:title></cc:Work></rdf:RDF></metadata>
<defs
   id="defs3169">
	
	<inkscape:path-effect
   effect="spiro"
   id="path-effect7110"
   is_visible="true" />
	<inkscape:path-effect
   effect="spiro"
   id="path-effect7107"
   is_visible="true" />
	<inkscape:path-effect
   effect="spiro"
   id="path-effect7104"
   is_visible="true" />
	<inkscape:path-effect
   effect="spiro"
   id="path-effect3481"
   is_visible="true" />
	<inkscape:path-effect
   effect="spiro"
   id="path-effect3490"
   is_visible="true" />
	<inkscape:path-effect
   effect="spiro"
   id="path-effect3499"
   is_visible="true" />
</defs>
<sodipodi:namedview
   showgrid="false"
   borderopacity="1.0"
   pagecolor="#ffffff"
   bordercolor="#666666"
   id="base"
   inkscape:zoom="1"
   inkscape:cy="29"
   inkscape:cx="174.57143"
   inkscape:pageopacity="0.0"
   inkscape:pageshadow="2"
   inkscape:document-units="px"
   inkscape:current-layer="svg3513"
   inkscape:window-width="876"
   inkscape:window-height="714"
   inkscape:window-x="1390"
   inkscape:window-y="225"
   inkscape:window-maximized="0">
	</sodipodi:namedview>
<g
   id="_x31_4">
	<g
   id="g3179">
		<path
   fill="#191919"
   d="M200,265.9l-10,10c-5.5,5.5-5.5,14.5,0,20c5.6,5.5,14.5,5.5,20,0c5.5-5.5,5.5-14.5,0-20L200,265.9z     M233,228.2l-10,10c-5.5,5.5-5.5,14.5,0,20c5.5,5.5,14.5,5.5,20,0c5.5-5.5,5.5-14.5,0-20L233,228.2z M167,228.2l-10,10    c-5.5,5.5-5.5,14.5,0,20c5.6,5.5,14.5,5.5,20,0c5.5-5.5,5.5-14.5,0-20L167,228.2z M247.1,137.7c-3.3,0-6.5,0.4-9.6,1    C224.6,115.6,200,100,171.7,100c-41.7,0-75.4,33.8-75.4,75.4c0,28.2,15.6,52.8,38.5,65.7c1.3-5.9,4.2-11.6,8.9-16.3l0.2-0.2    c-17.2-9.7-28.8-28.1-28.8-49.3c0-31.2,25.3-56.6,56.6-56.6c26.8,0,49.2,18.8,55,43.8c5.9-3.8,12.9-6.1,20.4-6.1    c20.8,0,37.7,16.9,37.7,37.7c0,16.2-10.3,30-24.6,35.3c3.7,5.4,5.6,11.6,5.8,18c22-7.8,37.8-28.7,37.8-53.3    C303.7,163,278.4,137.7,247.1,137.7z"
   id="path3181" />
	</g>
</g>
<g
   id="Layer_1_1_">
</g>
</svg>