<?xml version="1.0" encoding="UTF-8" standalone="no"?>
<!-- Generator: Adobe Illustrator 18.0.0, SVG Export Plug-In . SVG Version: 6.00 Build 0)  -->

<svg
   xmlns:dc="http://purl.org/dc/elements/1.1/"
   xmlns:cc="http://creativecommons.org/ns#"
   xmlns:rdf="http://www.w3.org/1999/02/22-rdf-syntax-ns#"
   xmlns:svg="http://www.w3.org/2000/svg"
   xmlns="http://www.w3.org/2000/svg"
   xmlns:sodipodi="http://sodipodi.sourceforge.net/DTD/sodipodi-0.dtd"
   xmlns:inkscape="http://www.inkscape.org/namespaces/inkscape"
   version="1.1"
   id="svg3513"
   inkscape:version="0.48.2 r9819"
   sodipodi:docname="36.svg"
   x="0px"
   y="0px"
   viewBox="0 0 400 400"
   enable-background="new 0 0 400 400"
   xml:space="preserve"
   width="100%"
   height="100%"><metadata
   id="metadata3718"><rdf:RDF><cc:Work
       rdf:about=""><dc:format>image/svg+xml</dc:format><dc:type
         rdf:resource="http://purl.org/dc/dcmitype/StillImage" /><dc:title></dc:title></cc:Work></rdf:RDF></metadata>
<defs
   id="defs3705">
	
	<inkscape:path-effect
   effect="spiro"
   id="path-effect7110"
   is_visible="true" />
	<inkscape:path-effect
   effect="spiro"
   id="path-effect7107"
   is_visible="true" />
	<inkscape:path-effect
   effect="spiro"
   id="path-effect7104"
   is_visible="true" />
	<inkscape:path-effect
   effect="spiro"
   id="path-effect3481"
   is_visible="true" />
	<inkscape:path-effect
   effect="spiro"
   id="path-effect3490"
   is_visible="true" />
	<inkscape:path-effect
   effect="spiro"
   id="path-effect3499"
   is_visible="true" />
</defs>
<sodipodi:namedview
   showgrid="false"
   borderopacity="1.0"
   pagecolor="#ffffff"
   bordercolor="#666666"
   id="base"
   inkscape:zoom="1"
   inkscape:cy="31.5"
   inkscape:cx="26.07143"
   inkscape:pageopacity="0.0"
   inkscape:pageshadow="2"
   inkscape:document-units="px"
   inkscape:current-layer="svg3513"
   inkscape:window-width="876"
   inkscape:window-height="550"
   inkscape:window-x="1390"
   inkscape:window-y="411"
   inkscape:window-maximized="0">
	</sodipodi:namedview>
<g
   id="_x31_">
	<path
   fill="#191919"
   d="M266.7,253.3l33.3,33.3c3.7,3.7,3.7,9.7,0,13.3c-3.7,3.7-9.6,3.7-13.3,0l-33.3-33.3   c-3.7-3.7-3.7-9.7,0-13.3C257,249.6,262.9,249.6,266.7,253.3z M200,275.4c5.2,0,9.4,4.2,9.4,9.4v48.9c0,5.2-4.2,9.4-9.4,9.4   s-9.4-4.2-9.4-9.4v-48.9C190.5,279.6,194.8,275.4,200,275.4z M133.3,253.3c3.7-3.7,9.7-3.7,13.3,0c3.7,3.7,3.7,9.7,0,13.3   L113.3,300c-3.7,3.7-9.6,3.7-13.3,0s-3.7-9.7,0-13.3L133.3,253.3z M124.6,200c0,5.2-4.2,9.4-9.4,9.4H66.3c-5.2,0-9.4-4.2-9.4-9.4   s4.2-9.4,9.4-9.4h48.9C120.4,190.6,124.6,194.8,124.6,200z M133.3,146.7L100,113.4c-3.7-3.7-3.7-9.7,0-13.3c3.7-3.7,9.6-3.7,13.3,0   l33.3,33.3c3.7,3.7,3.7,9.7,0,13.3C143,150.4,137.1,150.4,133.3,146.7z M200,124.6c-5.2,0-9.4-4.2-9.4-9.4V66.3   c0-5.2,4.2-9.4,9.4-9.4s9.4,4.2,9.4,9.4v48.9C209.4,120.4,205.2,124.6,200,124.6z M200,162.3c-20.8,0-37.7,16.9-37.7,37.7   s16.9,37.7,37.7,37.7s37.7-16.9,37.7-37.7S220.8,162.3,200,162.3z M200,256.6c-31.2,0-56.5-25.3-56.5-56.6s25.3-56.6,56.5-56.6   s56.6,25.3,56.6,56.6S231.2,256.6,200,256.6z M266.7,146.7c-3.7,3.7-9.7,3.7-13.3,0c-3.7-3.7-3.7-9.7,0-13.3l33.3-33.3   c3.7-3.7,9.6-3.7,13.3,0c3.7,3.7,3.7,9.7,0,13.3L266.7,146.7z M333.7,209.4h-48.9c-5.2,0-9.4-4.2-9.4-9.4s4.2-9.4,9.4-9.4h48.9   c5.2,0,9.4,4.2,9.4,9.4S338.9,209.4,333.7,209.4z"
   id="path3715" />
</g>
<g
   id="Layer_1_1_">
</g>
</svg>