<?xml version="1.0" encoding="UTF-8" standalone="no"?>
<!-- Generator: Adobe Illustrator 18.0.0, SVG Export Plug-In . SVG Version: 6.00 Build 0)  -->

<svg
   xmlns:dc="http://purl.org/dc/elements/1.1/"
   xmlns:cc="http://creativecommons.org/ns#"
   xmlns:rdf="http://www.w3.org/1999/02/22-rdf-syntax-ns#"
   xmlns:svg="http://www.w3.org/2000/svg"
   xmlns="http://www.w3.org/2000/svg"
   xmlns:sodipodi="http://sodipodi.sourceforge.net/DTD/sodipodi-0.dtd"
   xmlns:inkscape="http://www.inkscape.org/namespaces/inkscape"
   version="1.1"
   id="svg3513"
   inkscape:version="0.48.2 r9819"
   sodipodi:docname="24.svg"
   x="0px"
   y="0px"
   viewBox="0 0 400 400"
   enable-background="new 0 0 400 400"
   xml:space="preserve"
   width="100%"
   height="100%"><metadata
   id="metadata3497"><rdf:RDF><cc:Work
       rdf:about=""><dc:format>image/svg+xml</dc:format><dc:type
         rdf:resource="http://purl.org/dc/dcmitype/StillImage" /><dc:title></dc:title></cc:Work></rdf:RDF></metadata><defs
   id="defs3495" /><sodipodi:namedview
   pagecolor="#ffffff"
   bordercolor="#666666"
   borderopacity="1"
   objecttolerance="10"
   gridtolerance="10"
   guidetolerance="10"
   inkscape:pageopacity="0"
   inkscape:pageshadow="2"
   inkscape:window-width="640"
   inkscape:window-height="480"
   id="namedview3493"
   showgrid="false"
   inkscape:zoom="0.59"
   inkscape:cx="200"
   inkscape:cy="200"
   inkscape:window-x="0"
   inkscape:window-y="0"
   inkscape:window-maximized="0"
   inkscape:current-layer="layer1" />
<filter
   height="1.2130353"
   width="1.1747454"
   x="-0.087372705"
   y="-0.10651769"
   id="filter4669"
   inkscape:collect="always"
   color-interpolation-filters="sRGB">
	<feGaussianBlur
   id="feGaussianBlur4671"
   stdDeviation="3.7207575"
   inkscape:collect="always" />
</filter>
<g
   id="layer1"
   transform="translate(0,-924.36218)"
   inkscape:label="Ebene 1"
   inkscape:groupmode="layer">
	<g
   id="g4583"
   transform="translate(775.98696,527.23645)">
		<g
   id="g4543"
   transform="translate(-771.96848,-531.8201)"
   opacity="0.6"
   filter="url(#filter4669)">
			
				<path
   id="path4545_1_"
   sodipodi:nodetypes="cszz"
   inkscape:original-d="m 111.08339,989.52983 c 0,0 -61.000001,0 -74.500001,0 -13.5,0 -25.358746,-34.19342 -17.5,-33.5 7.858746,0.69342 21.707107,20.87868 21.707107,20.87868"
   inkscape:path-effect="#path-effect7110"
   inkscape:connector-curvature="0"
   fill="none"
   stroke="#191919"
   stroke-width="18.661"
   stroke-linecap="round"
   stroke-miterlimit="10"
   d="     M332.3,1119.7H133.7c-12.5,0-25.6-0.3-37.6-4s-23.2-11.5-29.9-22.1c-6.7-10.7-8.5-24.5-4.5-36.5s13.3-22.1,25.1-26.7     c7.7-3.2,16.5-4,24.8-2.4s16,5.6,22.1,11.5s10.4,13.3,12.3,21.6c1.9,8.3,1.6,16.8-1.3,24.8" />
			
				<path
   id="path4547_1_"
   sodipodi:nodetypes="cszz"
   inkscape:original-d="m 111.08339,1002.8078 c 0,0 -40.500001,0 -54.000001,0 -13.5,0 -36.898388,31.8123 -25,19 11.898388,-12.8123 28.5,-7.5 28.5,-7.5"
   inkscape:path-effect="#path-effect7107"
   inkscape:connector-curvature="0"
   fill="none"
   stroke="#191919"
   stroke-width="18.661"
   stroke-linecap="round"
   stroke-miterlimit="10"
   d="     M332.3,1155.1h-144c-8,0-16,0-24,1.3s-15.7,4-22.4,8.3s-12.5,10.4-16,17.6c-3.7,7.2-5.1,15.5-4.3,23.5c1.3,11.2,7.7,21.6,17.1,28     c9.3,6.4,21.3,8.5,32.3,5.6c10.9-2.9,20.5-10.7,25.3-20.8c5.1-10.1,5.3-22.4,1.1-32.8" />
			
				<path
   id="path4549_1_"
   sodipodi:nodetypes="cszz"
   inkscape:original-d="m 111.08339,975.52983 c 0,0 -22.500001,0 -36.000001,0 -13.5,0 -16.055445,-25.19342 -8.196699,-24.5 7.858746,0.69342 11.903805,12.81802 11.903805,12.81802"
   inkscape:path-effect="#path-effect7104"
   inkscape:connector-curvature="0"
   fill="none"
   stroke="#191919"
   stroke-width="18.661"
   stroke-linecap="round"
   stroke-miterlimit="10"
   d="     M332.3,1082.3h-96c-10.1,0-20.3-0.3-29.6-3.7c-4.8-1.9-9.1-4.3-12.8-7.7c-3.7-3.5-6.7-7.5-8.5-12.3c-1.9-4.8-2.7-9.9-2.1-14.7     c0.5-5.1,2.4-9.9,5.3-13.9s6.7-7.5,11.2-9.6s9.6-3.5,14.4-3.2c8.8,0,17.3,4,23.2,10.4s9.1,15.2,8.5,24" />
		</g>
		<g
   id="g7276"
   transform="translate(-771.96848,-531.8201)">
			
				<path
   id="path7278"
   sodipodi:nodetypes="cszz"
   inkscape:original-d="m 111.08339,989.52983 c 0,0 -61.000001,0 -74.500001,0 -13.5,0 -25.358746,-34.19342 -17.5,-33.5 7.858746,0.69342 21.707107,20.87868 21.707107,20.87868"
   inkscape:path-effect="#path-effect7110"
   inkscape:connector-curvature="0"
   fill="none"
   stroke="#191919"
   stroke-width="18.661"
   stroke-linecap="round"
   stroke-miterlimit="10"
   d="     M332.3,1119.7H133.7c-12.5,0-25.6-0.3-37.6-4s-23.2-11.5-29.9-22.1c-6.7-10.7-8.5-24.5-4.5-36.5s13.3-22.1,25.1-26.7     c7.7-3.2,16.5-4,24.8-2.4s16,5.6,22.1,11.5s10.4,13.3,12.3,21.6c1.9,8.3,1.6,16.8-1.3,24.8" />
			
				<path
   id="path7280"
   sodipodi:nodetypes="cszz"
   inkscape:original-d="m 111.08339,1002.8078 c 0,0 -40.500001,0 -54.000001,0 -13.5,0 -36.898388,31.8123 -25,19 11.898388,-12.8123 28.5,-7.5 28.5,-7.5"
   inkscape:path-effect="#path-effect7107"
   inkscape:connector-curvature="0"
   fill="none"
   stroke="#191919"
   stroke-width="18.661"
   stroke-linecap="round"
   stroke-miterlimit="10"
   d="     M332.3,1155.1h-144c-8,0-16,0-24,1.3s-15.7,4-22.4,8.3s-12.5,10.4-16,17.6c-3.7,7.2-5.1,15.5-4.3,23.5c1.3,11.2,7.7,21.6,17.1,28     c9.3,6.4,21.3,8.5,32.3,5.6c10.9-2.9,20.5-10.7,25.3-20.8c5.1-10.1,5.3-22.4,1.1-32.8" />
			
				<path
   id="path7282"
   sodipodi:nodetypes="cszz"
   inkscape:original-d="m 111.08339,975.52983 c 0,0 -22.500001,0 -36.000001,0 -13.5,0 -16.055445,-25.19342 -8.196699,-24.5 7.858746,0.69342 11.903805,12.81802 11.903805,12.81802"
   inkscape:path-effect="#path-effect7104"
   inkscape:connector-curvature="0"
   fill="none"
   stroke="#191919"
   stroke-width="18.661"
   stroke-linecap="round"
   stroke-miterlimit="10"
   d="     M332.3,1082.3h-96c-10.1,0-20.3-0.3-29.6-3.7c-4.8-1.9-9.1-4.3-12.8-7.7c-3.7-3.5-6.7-7.5-8.5-12.3c-1.9-4.8-2.7-9.9-2.1-14.7     c0.5-5.1,2.4-9.9,5.3-13.9s6.7-7.5,11.2-9.6s9.6-3.5,14.4-3.2c8.8,0,17.3,4,23.2,10.4s9.1,15.2,8.5,24" />
		</g>
	</g>
</g>
</svg>