<?xml version="1.0" encoding="UTF-8" standalone="no"?>
<!-- Created with Inkscape (http://www.inkscape.org/) -->

<svg
   xmlns:dc="http://purl.org/dc/elements/1.1/"
   xmlns:cc="http://creativecommons.org/ns#"
   xmlns:rdf="http://www.w3.org/1999/02/22-rdf-syntax-ns#"
   xmlns:svg="http://www.w3.org/2000/svg"
   xmlns="http://www.w3.org/2000/svg"
   xmlns:sodipodi="http://sodipodi.sourceforge.net/DTD/sodipodi-0.dtd"
   xmlns:inkscape="http://www.inkscape.org/namespaces/inkscape"
   id="svg2"
   version="1.1"
   inkscape:version="0.48.2 r9819"
   width="27.5"
   height="27.5"
   xml:space="preserve"
   sodipodi:docname="dizmoIcon-about-light.ai"><metadata
     id="metadata8"><rdf:RDF><cc:Work
         rdf:about=""><dc:format>image/svg+xml</dc:format><dc:type
           rdf:resource="http://purl.org/dc/dcmitype/StillImage" /><dc:title></dc:title></cc:Work></rdf:RDF></metadata><defs
     id="defs6"><clipPath
       clipPathUnits="userSpaceOnUse"
       id="clipPath16"><path
         d="M 0,22 22,22 22,0 0,0 0,22 z"
         id="path18" /></clipPath></defs><sodipodi:namedview
     pagecolor="#ffffff"
     bordercolor="#666666"
     borderopacity="1"
     objecttolerance="10"
     gridtolerance="10"
     guidetolerance="10"
     inkscape:pageopacity="0"
     inkscape:pageshadow="2"
     inkscape:window-width="1345"
     inkscape:window-height="809"
     id="namedview4"
     showgrid="false"
     inkscape:zoom="8.5818182"
     inkscape:cx="13.75"
     inkscape:cy="13.75"
     inkscape:window-x="0"
     inkscape:window-y="22"
     inkscape:window-maximized="0"
     inkscape:current-layer="g10" /><g
     id="g10"
     inkscape:groupmode="layer"
     inkscape:label="dizmoIcon-about-light"
     transform="matrix(1.25,0,0,-1.25,0,27.5)"><g
       id="g12"><g
         id="g14"
         clip-path="url(#clipPath16)"><g
           id="g20"
           transform="translate(3.5,7.2007)"><path
             d="m 0,0 c 0,-0.298 0.12,-0.557 0.318,-0.755 0.199,-0.2 0.537,-0.319 1.015,-0.359 0.301,-0.026 0.611,-0.043 0.922,-0.055 L 0,3.767 0,0 z"
             style="fill:#e5e5e5;fill-opacity:1;fill-rule:nonzero;stroke:none"
             id="path22" /></g><g
           id="g24"
           transform="translate(18.1817,15.5553)"><path
             d="M 0,0 C -0.199,0.199 -0.537,0.318 -1.014,0.358 -1.311,0.384 -1.617,0.4 -1.923,0.412 l 2.241,-4.806 0,3.638 C 0.318,-0.458 0.199,-0.199 0,0"
             style="fill:#e5e5e5;fill-opacity:1;fill-rule:nonzero;stroke:none"
             id="path26" /></g><g
           id="g28"
           transform="translate(6.9014,15.9927)"><path
             d="m 0,0 c -0.676,0 -1.392,-0.02 -2.069,-0.08 -0.477,-0.039 -0.816,-0.159 -1.014,-0.357 -0.199,-0.2 -0.318,-0.458 -0.318,-0.756 l 0,-2.665 C -2.577,-3.421 4.703,0 4.703,0 L 0,0 z"
             style="fill:#e5e5e5;fill-opacity:1;fill-rule:nonzero;stroke:none"
             id="path30" /></g><g
           id="g32"
           transform="translate(16.6666,9.0601)"><path
             d="m 0,0 -6.547,-3.053 4.979,0 c 0.677,0 1.393,0.021 2.069,0.08 0.477,0.04 0.815,0.159 1.014,0.358 0.199,0.199 0.318,0.457 0.318,0.756 l 0,2.793 C 1.009,0.497 0.877,0.409 0,0"
             style="fill:#e5e5e5;fill-opacity:1;fill-rule:nonzero;stroke:none"
             id="path34" /></g><g
           id="g36"
           transform="translate(10.4984,9.9867)"><path
             d="M 0,0 0.002,0 C 0.001,0.001 -0.001,0.002 -0.002,0.003 l -0.657,1.41 c -0.001,0.002 0,0.003 -0.001,0.004 l 0,-0.001 -0.031,0.066 C -0.819,1.755 -1.124,1.85 -1.378,1.732 L -3.58,0.705 C -3.835,0.587 -3.958,0.291 -3.83,0.018 l 0.03,-0.066 -0.001,0 c 0,-0.001 0.002,-0.002 0.003,-0.003 l 0.657,-1.409 c 10e-4,-0.002 0,-0.004 10e-4,-0.005 l 0,0.001 0.031,-0.066 c 0.128,-0.274 0.434,-0.368 0.687,-0.25 l 2.202,1.026 c 0.254,0.119 0.378,0.415 0.25,0.688 L 0,0 z"
             style="fill:#e5e5e5;fill-opacity:1;fill-rule:nonzero;stroke:none"
             id="path38" /></g><g
           id="g40"
           transform="translate(15.0489,12.1091)"><path
             d="M 0,0 0.002,-0.001 C 0.001,0.001 -0.001,0.001 -0.001,0.003 l -0.658,1.409 c -0.001,0.002 0,0.003 -0.001,0.004 l 0,-10e-4 -0.031,0.066 C -0.819,1.755 -1.124,1.85 -1.378,1.731 L -3.58,0.705 C -3.834,0.586 -3.958,0.291 -3.83,0.018 l 0.031,-0.067 -0.002,0.001 c 0,-0.002 0.002,-0.002 0.003,-0.004 l 0.657,-1.409 c 10e-4,-0.002 0,-0.003 10e-4,-0.004 l 0,0.001 0.032,-0.066 c 0.127,-0.274 0.433,-0.369 0.686,-0.25 l 2.203,1.026 c 0.254,0.119 0.377,0.414 0.25,0.688 L 0,0 z"
             style="fill:#e5e5e5;fill-opacity:1;fill-rule:nonzero;stroke:none"
             id="path42" /></g><g
           id="g44"
           transform="translate(3.5762,0.9985)"><path
             d="m 0,0 14.848,0 c 0.011,0.001 0.023,0.003 0.035,0.003 0.764,0.054 2.542,0.418 2.542,2.652 l 0,14.692 c 0,2.234 -1.778,2.598 -2.542,2.652 -0.014,0.001 -0.028,0.002 -0.042,0.004 l -14.835,0 C -0.007,20.001 -0.021,20 -0.035,19.999 -0.8,19.945 -2.578,19.581 -2.578,17.347 l 0,-14.692 C -2.578,0.421 -0.8,0.057 -0.035,0.003 -0.023,0.003 -0.012,0.001 0,0 m 14.917,-0.997 -14.987,0 c -0.037,0 -0.073,0.004 -0.108,0.012 -1.656,0.14 -3.397,1.166 -3.397,3.64 l 0,14.692 c 0,2.472 1.738,3.498 3.392,3.64 C -0.146,20.996 -0.108,21 -0.07,21 l 14.987,0 c 0.04,0 0.079,-0.005 0.115,-0.013 1.655,-0.143 3.39,-1.17 3.39,-3.64 l 0,-14.692 c 0,-2.475 -1.742,-3.5 -3.398,-3.64 -0.034,-0.008 -0.07,-0.012 -0.107,-0.012"
             style="fill:#e5e5e5;fill-opacity:1;fill-rule:nonzero;stroke:none"
             id="path46" /></g></g></g></g></svg>